<svg width="10" height="10" viewBox="0 0 10 10" fill="none" xmlns="http://www.w3.org/2000/svg">
<g filter="url(#filter0_d_285_3)">
<path d="M2.00129 4.5C1.72515 4.49929 1.50072 4.72257 1.5 4.99871C1.49929 5.27485 1.72257 5.49928 1.99871 5.5L2.00129 4.5ZM8.3524 5.36997C8.54816 5.17521 8.54898 4.85863 8.35422 4.66286L5.18047 1.47267C4.98572 1.2769 4.66913 1.27609 4.47337 1.47084C4.2776 1.6656 4.27678 1.98218 4.47154 2.17795L7.29265 5.01367L4.45693 7.83478C4.26116 8.02954 4.26034 8.34612 4.4551 8.54189C4.64986 8.73765 4.96644 8.73847 5.16221 8.54372L8.3524 5.36997ZM1.99871 5.5L7.99847 5.5155L8.00105 4.5155L2.00129 4.5L1.99871 5.5Z" fill="#00B8E1"/>
</g>
<defs>
<filter id="filter0_d_285_3" x="0.6" y="0.425195" width="8.79976" height="9.16401" filterUnits="userSpaceOnUse" color-interpolation-filters="sRGB">
<feFlood flood-opacity="0" result="BackgroundImageFix"/>
<feColorMatrix in="SourceAlpha" type="matrix" values="0 0 0 0 0 0 0 0 0 0 0 0 0 0 0 0 0 0 127 0" result="hardAlpha"/>
<feOffset/>
<feGaussianBlur stdDeviation="0.45"/>
<feComposite in2="hardAlpha" operator="out"/>
<feColorMatrix type="matrix" values="0 0 0 0 0.621833 0 0 0 0 0.725573 0 0 0 0 0.758333 0 0 0 0.85 0"/>
<feBlend mode="normal" in2="BackgroundImageFix" result="effect1_dropShadow_285_3"/>
<feBlend mode="normal" in="SourceGraphic" in2="effect1_dropShadow_285_3" result="shape"/>
</filter>
</defs>
</svg>
