<svg width="40" height="38" viewBox="0 0 40 38" fill="none" xmlns="http://www.w3.org/2000/svg">
<path d="M25 26.25V22.5H40V33.75C40 35.7812 38.2031 37.5 36.25 37.5H3.75C1.71875 37.5 0 35.7812 0 33.75V22.5H15V26.25C15 26.9531 15.5469 27.5 16.25 27.5H23.75C24.375 27.5 25 26.9531 25 26.25ZM36.25 7.5C38.2031 7.5 40 9.29688 40 11.25V20H0V11.25C0 9.29688 1.71875 7.5 3.75 7.5H10V3.75C10 1.79688 11.7188 0 13.75 0H26.25C28.2031 0 30 1.79688 30 3.75V7.5H36.25ZM26.25 7.5V3.75H13.75V7.5H26.25Z" fill="#27BEFF"/>
</svg>
