<svg width="40" height="30" viewBox="0 0 40 30" fill="none" xmlns="http://www.w3.org/2000/svg">
<path d="M0 5C0 2.26562 2.1875 0 5 0H35C37.7344 0 40 2.26562 40 5V25C40 27.8125 37.7344 30 35 30H5C2.1875 30 0 27.8125 0 25V5ZM3.75 5V6.79688L17.1875 17.8125C18.8281 19.1406 21.0938 19.1406 22.7344 17.8125L36.25 6.79688V5C36.25 4.375 35.625 3.75 35 3.75H5C4.29688 3.75 3.75 4.375 3.75 5ZM3.75 11.6406V25C3.75 25.7031 4.29688 26.25 5 26.25H35C35.625 26.25 36.25 25.7031 36.25 25V11.6406L25.1562 20.7031C22.1094 23.2031 17.8125 23.2031 14.7656 20.7031L3.75 11.6406Z" fill="#44A2D9"/>
</svg>
