<svg width="128" height="128" viewBox="0 0 128 128" fill="none" xmlns="http://www.w3.org/2000/svg">
<path d="M88 64C88 69.75 87.5 75 87 80H40.75C40.25 75 39.75 69.75 39.75 64C39.75 58.5 40.25 53.25 40.75 48H87C87.5 53.25 88 58.5 88 64ZM125.75 48C127.25 53.25 128 58.5 128 64C128 69.75 127.25 75 125.75 80H95C95.5 75 96 69.5 96 64C96 58.5 95.5 53.25 95 48H125.75ZM123.25 40H94C91.5 24.25 86.5 10.75 80.25 2.25C99.75 7.5 115.75 21.5 123.25 40ZM86 40H41.75C43.25 31 45.75 23 48.5 16.5C51.25 10.5 54 6.25 57 3.5C59.75 1 62 0 64 0C65.75 0 68 1 70.75 3.5C73.75 6.25 76.5 10.5 79.25 16.5C82 23 84.5 31 86 40ZM4.5 40C12 21.5 28 7.5 47.5 2.25C41.25 10.75 36.25 24.25 33.75 40H4.5ZM32.75 48C32.25 53.25 31.75 58.5 31.75 64C31.75 69.5 32.25 75 32.75 80H2C0.5 75 0 69.75 0 64C0 58.5 0.5 53.25 2 48H32.75ZM48.5 111.75C45.75 105.25 43.25 97.25 41.75 88H86C84.5 97.25 82 105.25 79.25 111.75C76.5 117.75 73.75 122 70.75 124.75C68 127.25 65.75 128 63.75 128C62 128 59.75 127.25 57 124.75C54 122 51.25 117.75 48.5 111.75ZM47.5 126C28 120.75 12 106.75 4.5 88H33.75C36.25 104 41.25 117.5 47.5 126ZM80.25 126C86.5 117.5 91.5 104 94 88H123.25C115.75 106.75 99.75 120.75 80.25 126Z" fill="#646464"/>
</svg>
