<svg width="13" height="13" viewBox="0 0 13 13" fill="none" xmlns="http://www.w3.org/2000/svg">
<path d="M2.83881 13H0.295837V4.82422H2.83881V13ZM1.55365 3.73047C0.760681 3.73047 0.104431 3.04688 0.104431 2.22656C0.104431 1.43359 0.760681 0.777344 1.55365 0.777344C2.37396 0.777344 3.03021 1.43359 3.03021 2.22656C3.03021 3.04688 2.37396 3.73047 1.55365 3.73047ZM12.3271 13H9.81146V9.03516C9.81146 8.07812 9.78412 6.875 8.47162 6.875C7.15912 6.875 6.96771 7.88672 6.96771 8.95312V13H4.42474V4.82422H6.85834V5.94531H6.88568C7.24115 5.31641 8.06146 4.63281 9.29193 4.63281C11.8622 4.63281 12.3544 6.32812 12.3544 8.51562V13H12.3271Z" fill="#585858"/>
</svg>
