<svg width="7" height="4" viewBox="0 0 7 4" fill="none" xmlns="http://www.w3.org/2000/svg">
<path d="M2.44684 3.90578C1.80308 4.02864 0.906873 3.95576 0.906873 3.95576C0.906873 3.95576 1.68681 3.77635 2.15832 3.55666C2.36163 3.46193 2.49808 3.40387 2.71046 3.29074C3.10957 3.07812 3.43339 2.79161 3.69949 2.66425C3.96558 2.53689 4.25424 2.44433 4.72951 2.5885C4.92001 2.64629 5.19711 2.79108 5.19711 2.79108L5.06323 2.79026C4.66157 2.78778 4.17578 2.94178 3.85661 3.11566C3.25247 3.44477 3.14746 3.77208 2.44684 3.90578Z" fill="white" stroke="#252525" stroke-width="0.03"/>
<path d="M4.66506 3.40841C4.3983 3.43232 3.79733 3.63515 3.86429 3.57754C3.93124 3.51993 4.46595 3.23312 4.86648 3.11955C4.99014 3.08448 5.10265 3.06816 5.20006 3.06358C5.29748 3.05901 5.49976 3.05988 5.66639 3.12448C5.85231 3.19655 5.97396 3.38638 5.98577 3.4662C5.99759 3.54602 5.99738 3.59067 5.99738 3.59067C5.99738 3.59067 5.86464 3.47381 5.59829 3.41415C5.33194 3.35449 4.93183 3.38449 4.66506 3.40841Z" fill="white" stroke="#252525" stroke-width="0.03"/>
<path d="M1.44954 3.50629L3.40674 0.323141L4.73601 2.26176L3.9327 2.25681L3.40079 1.5213L2.2545 3.17841L1.44954 3.50629Z" fill="white" stroke="#252525" stroke-width="0.03"/>
<path d="M2.66805 0.784549L3.07301 0.121371L0.261414 0.104095L0.244532 3.49889L0.980903 3.50341L0.988517 1.97243L2.01164 1.97191L2.37992 1.30608L0.991827 1.30678L0.994475 0.774266L2.66805 0.784549Z" fill="white" stroke="#252525" stroke-width="0.03"/>
</svg>
