<svg id="ef6KMbDXk711" xmlns="http://www.w3.org/2000/svg" xmlns:xlink="http://www.w3.org/1999/xlink" viewBox="0 0 117 80" shape-rendering="geometricPrecision" text-rendering="geometricPrecision"><defs><filter id="ef6KMbDXk712-filter" x="-150%" width="400%" y="-150%" height="400%"><feGaussianBlur id="ef6KMbDXk712-filter-drop-shadow-0-blur" in="SourceAlpha" stdDeviation="0.1,0.1"/><feOffset id="ef6KMbDXk712-filter-drop-shadow-0-offset" dx="0" dy="2" result="tmp"/><feFlood id="ef6KMbDXk712-filter-drop-shadow-0-flood" flood-color="#000"/><feComposite id="ef6KMbDXk712-filter-drop-shadow-0-composite" operator="in" in2="tmp"/><feMerge id="ef6KMbDXk712-filter-drop-shadow-0-merge" result="result"><feMergeNode id="ef6KMbDXk712-filter-drop-shadow-0-merge-node-1"/><feMergeNode id="ef6KMbDXk712-filter-drop-shadow-0-merge-node-2" in="SourceGraphic"/></feMerge></filter><filter id="ef6KMbDXk714-filter" x="-150%" width="400%" y="-150%" height="400%"><feGaussianBlur id="ef6KMbDXk714-filter-drop-shadow-0-blur" in="SourceAlpha" stdDeviation="0.1,0.1"/><feOffset id="ef6KMbDXk714-filter-drop-shadow-0-offset" dx="0" dy="2" result="tmp"/><feFlood id="ef6KMbDXk714-filter-drop-shadow-0-flood" flood-color="#000"/><feComposite id="ef6KMbDXk714-filter-drop-shadow-0-composite" operator="in" in2="tmp"/><feMerge id="ef6KMbDXk714-filter-drop-shadow-0-merge" result="result"><feMergeNode id="ef6KMbDXk714-filter-drop-shadow-0-merge-node-1"/><feMergeNode id="ef6KMbDXk714-filter-drop-shadow-0-merge-node-2" in="SourceGraphic"/></feMerge></filter><filter id="ef6KMbDXk717-filter" x="-150%" width="400%" y="-150%" height="400%"><feGaussianBlur id="ef6KMbDXk717-filter-drop-shadow-0-blur" in="SourceAlpha" stdDeviation="0.1,0.1"/><feOffset id="ef6KMbDXk717-filter-drop-shadow-0-offset" dx="0" dy="2" result="tmp"/><feFlood id="ef6KMbDXk717-filter-drop-shadow-0-flood" flood-color="#000"/><feComposite id="ef6KMbDXk717-filter-drop-shadow-0-composite" operator="in" in2="tmp"/><feMerge id="ef6KMbDXk717-filter-drop-shadow-0-merge" result="result"><feMergeNode id="ef6KMbDXk717-filter-drop-shadow-0-merge-node-1"/><feMergeNode id="ef6KMbDXk717-filter-drop-shadow-0-merge-node-2" in="SourceGraphic"/></feMerge></filter><filter id="ef6KMbDXk719-filter" x="-150%" width="400%" y="-150%" height="400%"><feGaussianBlur id="ef6KMbDXk719-filter-drop-shadow-0-blur" in="SourceAlpha" stdDeviation="0.1,0.1"/><feOffset id="ef6KMbDXk719-filter-drop-shadow-0-offset" dx="0" dy="2" result="tmp"/><feFlood id="ef6KMbDXk719-filter-drop-shadow-0-flood" flood-color="#000"/><feComposite id="ef6KMbDXk719-filter-drop-shadow-0-composite" operator="in" in2="tmp"/><feMerge id="ef6KMbDXk719-filter-drop-shadow-0-merge" result="result"><feMergeNode id="ef6KMbDXk719-filter-drop-shadow-0-merge-node-1"/><feMergeNode id="ef6KMbDXk719-filter-drop-shadow-0-merge-node-2" in="SourceGraphic"/></feMerge></filter></defs><g id="ef6KMbDXk712" transform="translate(3.930743 17.200053)" opacity="0.22" filter="url(#ef6KMbDXk712-filter)"><path d="M49.9879,44.0135c-8.7455,1.3838-20.918-.1157-20.918-.1157s10.7224-2.6619,17.4301-4.8978c3-1,4.0226-1.0429,6.5-2c4.8372-1.8689,10.3856-5.5632,14-7s7.5357-2.4805,13.9934-.8497c2.5884.6537,6.3539,2.2903,6.3539,2.2903l-1.819-.01c-5.4569-.0302-12.056,1.7062-16.3914,3.668-8.2061,3.7132-9.6312,7.4089-19.149,8.9149Z" fill="#fff"/></g><g id="ef6KMbDXk714" transform="translate(3.930744 17.200053)" opacity="0.22" filter="url(#ef6KMbDXk714-filter)"><path d="M80.0566,38.34c-3.6241.2686-11.7877,2.5557-10.8784,1.9055s8.1724-3.8861,13.6134-5.1664c1.6799-.3953,3.2084-.5791,4.5318-.6302s4.0716-.0402,6.3358.6903c2.5262.8149,4.3893,3.3003,4.5063,3.9561s-.0072,1.3104-.0072,1.3104-1.804-1.3204-5.4229-1.9956c-3.6188-.6752-9.0546-.3387-12.6788-.0701Z" fill="#fff"/><path d="M80.0566,38.34c-3.6241.2686-11.7877,2.5557-10.8784,1.9055s8.1724-3.8861,13.6134-5.1664c1.6799-.3953,3.2084-.5791,4.5318-.6302s4.0716-.0402,6.3358.6903c2.5262.8149,4.3893,3.3003,4.5063,3.9561s-.0072,1.3104-.0072,1.3104-1.804-1.3204-5.4229-1.9956c-3.6188-.6752-9.0546-.3387-12.6788-.0701Z" fill="none" stroke="#fff" stroke-width="0.5"/></g><g id="ef6KMbDXk717" transform="translate(3.930743 17.200053)" opacity="0.22" filter="url(#ef6KMbDXk717-filter)"><path d="M36.3707,39.4274L62.9451,3.49137L81.0143,25.3914L70.1005,25.331l-7.2302-8.3089-15.565,18.7071-10.9346,3.6982Z" fill="#fff"/></g><g id="ef6KMbDXk719" transform="translate(3.930743 17.200053)" filter="url(#ef6KMbDXk719-filter)"><path d="M52.9117,8.69803l5.4985-7.48688L20.212,1l-.2119,38.3369l10.0043.0553.0955-17.2892h15.9002l5-7.517h-20.8586l.0332-6.01365l22.737.12568Z" fill="#d9d9d9"/></g>
<script><![CDATA[]]></script>
</svg>
