<svg width="117" height="80" viewBox="0 0 117 80" fill="none" xmlns="http://www.w3.org/2000/svg">
<g filter="url(#filter0_d_99_2)">
<path d="M49.9216 43.9442C41.1761 45.328 29 44.5 29 44.5C29 44.5 39.5952 42.4783 46 40C48.7616 38.9314 50.6152 38.2765 53.5 37C58.9212 34.6012 63.3192 31.3675 66.9337 29.9307C70.5481 28.4939 74.4694 27.4502 80.927 29.081C83.5155 29.7347 87.2809 31.3713 87.2809 31.3713L85.462 31.3612C80.0051 31.3311 73.406 33.0675 69.0705 35.0293C60.8644 38.7425 59.4394 42.4382 49.9216 43.9442Z" fill="white"/>
</g>
<g filter="url(#filter1_d_99_2)">
<path d="M80.0566 38.34C76.4325 38.6086 68.2689 40.8957 69.1782 40.2455C70.0876 39.5953 77.3506 36.3594 82.7916 35.0791C84.4715 34.6838 86 34.5 87.3234 34.4489C88.6468 34.3978 91.395 34.4087 93.6592 35.1391C96.1854 35.9541 97.8391 38.0985 98 39C98.1609 39.9015 98.1583 40.4057 98.1583 40.4057C98.1583 40.4057 96.3543 39.0853 92.7354 38.4101C89.1166 37.7349 83.6808 38.0714 80.0566 38.34Z" fill="white"/>
<path d="M80.0566 38.34C76.4325 38.6086 68.2689 40.8957 69.1782 40.2455C70.0876 39.5953 77.3506 36.3594 82.7916 35.0791C84.4715 34.6838 86 34.5 87.3234 34.4489C88.6468 34.3978 91.395 34.4087 93.6592 35.1391C96.1854 35.9541 97.8391 38.0985 98 39C98.1609 39.9015 98.1583 40.4057 98.1583 40.4057C98.1583 40.4057 96.3543 39.0853 92.7354 38.4101C89.1166 37.7349 83.6808 38.0714 80.0566 38.34Z" stroke="white" stroke-width="0.5"/>
</g>
<g filter="url(#filter2_d_99_2)">
<path d="M36.3707 39.4274L62.9451 3.49137L81.0143 25.3914L70.1005 25.331L62.8703 17.0221L47.3053 35.7292L36.3707 39.4274Z" fill="white"/>
</g>
<g filter="url(#filter3_d_99_2)">
<path d="M52.9117 8.69803L58.4102 1.21115L20.212 1L20.0001 39.3369L30.0044 39.3922L30.0999 22.103L44 22.103L49 14.586L30.1415 14.586L30.1747 8.57235L52.9117 8.69803Z" fill="#D9D9D9"/>
</g>
<g filter="url(#filter4_d_99_2)">
<path d="M8.85043 62.0429L8.90671 51.8612L15.8569 51.8996L15.8458 53.8982L11.3566 53.8734L11.345 55.9614L15.3918 55.9838L15.3808 57.9873L11.3339 57.9649L11.3113 62.0565L8.85043 62.0429ZM17.9707 62.0933L15.3258 62.0787L18.8174 51.916L22.0937 51.9341L25.4727 62.1348L22.8278 62.1201L20.4786 54.4906L20.3991 54.4901L17.9707 62.0933ZM17.6398 58.0843L23.1682 58.1149L23.1578 59.9841L17.6295 59.9536L17.6398 58.0843ZM29.0861 51.9728L29.0298 62.1544L26.5689 62.1408L26.6252 51.9592L29.0861 51.9728ZM34.3381 62.1838L30.5747 62.163L30.631 51.9813L34.3895 52.0021C35.4268 52.0078 36.3189 52.2166 37.0657 52.6284C37.8158 53.0369 38.3926 53.6234 38.7961 54.388C39.1995 55.1492 39.3984 56.0585 39.3925 57.1157C39.3867 58.1763 39.1778 59.0867 38.7659 59.8467C38.3573 60.6068 37.7758 61.1885 37.0211 61.5921C36.2666 61.9922 35.3722 62.1895 34.3381 62.1838ZM33.0472 60.0786L34.2553 60.0853C34.8254 60.0884 35.3081 59.995 35.7036 59.8049C36.1024 59.6116 36.4041 59.2967 36.6087 58.8603C36.8166 58.4207 36.9226 57.8346 36.9266 57.1021C36.9307 56.3696 36.8312 55.7858 36.6281 55.3504C36.425 54.9118 36.1235 54.5953 35.7235 54.4008C35.3269 54.2031 34.8369 54.1026 34.2536 54.0994L33.0803 54.0929L33.0472 60.0786ZM46.0113 62.2483L43.3664 62.2337L46.858 52.071L50.1342 52.0891L53.5133 62.2898L50.8684 62.2751L48.5192 54.6456L48.4397 54.6451L46.0113 62.2483ZM45.6804 58.2393L51.2088 58.2699L51.1984 60.1391L45.6701 60.1086L45.6804 58.2393ZM54.6095 62.2958L54.6658 52.1142L57.1267 52.1278L57.0814 60.3109L61.3172 60.3343L61.3061 62.3328L54.6095 62.2958ZM74.3095 52.2227L74.2532 62.4044L72.1652 62.3929L68.1459 56.4941L68.0812 56.4938L68.0487 62.3701L65.5878 62.3565L65.6441 52.1748L67.762 52.1865L71.7366 58.0751L71.8211 58.0756L71.8536 52.2092L74.3095 52.2227ZM78.003 62.4251L75.3581 62.4105L78.8497 52.2478L82.1259 52.2659L85.505 62.4666L82.8601 62.452L80.5109 54.8224L80.4314 54.822L78.003 62.4251ZM77.6721 58.4161L83.2005 58.4467L83.1901 60.316L77.6618 60.2854L77.6721 58.4161ZM88.8036 62.4848L86.1587 62.4702L89.6503 52.3075L92.9266 52.3257L96.3056 62.5263L93.6607 62.5117L91.3116 54.8821L91.232 54.8817L88.8036 62.4848ZM88.4728 58.4758L94.0011 58.5064L93.9907 60.3757L88.4624 60.3451L88.4728 58.4758ZM97.4581 52.3507L100.506 52.3675L103.056 58.6857L103.175 58.6864L105.795 52.3968L108.843 52.4136L108.787 62.5953L106.39 62.582L106.425 56.3279L106.34 56.3274L103.86 62.5034L102.329 62.495L99.9174 56.2571L99.8328 56.2566L99.7981 62.5456L97.4018 62.5324L97.4581 52.3507Z" fill="white"/>
</g>
<g filter="url(#filter5_d_99_2)">
<path d="M26.7126 73.0036L26.7448 67.1855L30.3527 67.2055L30.3485 67.9611L27.6184 67.946L27.6086 69.7187L30.0802 69.7324L30.076 70.4852L27.6045 70.4716L27.5905 73.0085L26.7126 73.0036ZM32.8491 73.1256C32.44 73.1233 32.0836 73.0276 31.7797 72.8384C31.4758 72.6493 31.2405 72.3856 31.0738 72.0476C30.9071 71.7095 30.825 71.3151 30.8275 70.8644C30.83 70.4118 30.9165 70.0164 31.0869 69.6783C31.2573 69.3402 31.4955 69.0783 31.8015 68.8925C32.1074 68.7067 32.465 68.6149 32.874 68.6172C33.2831 68.6194 33.6396 68.7151 33.9435 68.9043C34.2474 69.0935 34.4827 69.3581 34.6493 69.698C34.816 70.0379 34.8981 70.4342 34.8956 70.8869C34.8931 71.3376 34.8067 71.7311 34.6362 72.0673C34.4658 72.4035 34.2276 72.6645 33.9217 72.8503C33.6157 73.0361 33.2582 73.1279 32.8491 73.1256ZM32.8559 72.4126C33.121 72.414 33.3411 72.3452 33.5161 72.206C33.6912 72.0668 33.821 71.881 33.9056 71.6485C33.9921 71.416 34.0361 71.1596 34.0377 70.8793C34.0392 70.6009 33.998 70.345 33.9141 70.1116C33.8321 69.8763 33.7043 69.6871 33.5309 69.5441C33.3574 69.4011 33.1381 69.3289 32.873 69.3274C32.6059 69.3259 32.3839 69.3957 32.207 69.5368C32.032 69.6779 31.9012 69.8656 31.8147 70.1C31.7301 70.3324 31.687 70.5879 31.6855 70.8663C31.6839 71.1466 31.7242 71.4035 31.8062 71.6369C31.8901 71.8703 32.0188 72.0576 32.1923 72.1987C32.3677 72.3398 32.5889 72.4111 32.8559 72.4126ZM35.8318 73.054L35.8559 68.6905L36.6769 68.695L36.6731 69.3882L36.7186 69.3884C36.7994 69.154 36.9406 68.9701 37.1421 68.8368C37.3455 68.7015 37.575 68.6346 37.8307 68.636C37.8837 68.6363 37.9462 68.6386 38.0182 68.6427C38.092 68.6469 38.1497 68.652 38.1914 68.6579L38.1869 69.4704C38.1528 69.4607 38.0923 69.45 38.0052 69.4381C37.9182 69.4244 37.8311 69.4173 37.744 69.4168C37.5432 69.4157 37.364 69.4573 37.2064 69.5417C37.0506 69.6242 36.9268 69.74 36.8351 69.8891C36.7434 70.0363 36.697 70.2046 36.696 70.394L36.6812 73.0587L35.8318 73.054ZM43.12 68.7306L43.1163 69.4124L40.6504 69.3988L40.6541 68.717L43.12 68.7306ZM41.3062 73.0843L41.3331 68.215C41.3346 67.9423 41.3955 67.7163 41.5158 67.5371C41.6361 67.3559 41.795 67.2214 41.9925 67.1334C42.1899 67.0436 42.4042 66.9994 42.6353 67.0006C42.8057 67.0016 42.9515 67.0166 43.0725 67.0457C43.1936 67.0728 43.2834 67.098 43.342 67.121L43.1393 67.8074C43.0996 67.7958 43.0486 67.7823 42.9861 67.7668C42.9237 67.7494 42.848 67.7405 42.759 67.74C42.5526 67.7388 42.4046 67.7891 42.315 67.8909C42.2273 67.9927 42.1829 68.1402 42.1819 68.3334L42.1556 73.089L41.3062 73.0843ZM45.638 73.1963C45.2289 73.194 44.8724 73.0983 44.5685 72.9091C44.2647 72.72 44.0294 72.4563 43.8627 72.1183C43.696 71.7802 43.6139 71.3858 43.6164 70.9351C43.6189 70.4824 43.7053 70.0871 43.8758 69.749C44.0462 69.4109 44.2844 69.149 44.5903 68.9632C44.8963 68.7774 45.2538 68.6856 45.6629 68.6878C46.072 68.6901 46.4285 68.7858 46.7324 68.975C47.0362 69.1642 47.2715 69.4288 47.4382 69.7687C47.6049 70.1086 47.687 70.5049 47.6845 70.9576C47.682 71.4083 47.5955 71.8018 47.4251 72.138C47.2547 72.4742 47.0165 72.7352 46.7105 72.921C46.4046 73.1068 46.0471 73.1986 45.638 73.1963ZM45.6448 72.4833C45.9099 72.4847 46.13 72.4159 46.305 72.2767C46.48 72.1375 46.6098 71.9517 46.6945 71.7192C46.781 71.4867 46.825 71.2303 46.8266 70.95C46.8281 70.6716 46.7869 70.4157 46.703 70.1823C46.6209 69.9469 46.4932 69.7578 46.3197 69.6148C46.1463 69.4718 45.927 69.3995 45.6618 69.3981C45.3948 69.3966 45.1728 69.4664 44.9959 69.6075C44.8209 69.7485 44.6901 69.9363 44.6036 70.1706C44.5189 70.4031 44.4759 70.6586 44.4743 70.937C44.4728 71.2173 44.513 71.4741 44.5951 71.7076C44.679 71.941 44.8077 72.1282 44.9812 72.2694C45.1565 72.4105 45.3777 72.4818 45.6448 72.4833ZM50.4582 73.2229C50.0491 73.2207 49.6927 73.125 49.3888 72.9358C49.0849 72.7466 48.8496 72.483 48.6829 72.1449C48.5162 71.8069 48.4341 71.4125 48.4366 70.9617C48.4391 70.5091 48.5256 70.1137 48.696 69.7757C48.8664 69.4376 49.1046 69.1756 49.4106 68.9898C49.7165 68.804 50.0741 68.7122 50.4831 68.7145C50.8922 68.7168 51.2487 68.8125 51.5526 69.0017C51.8565 69.1908 52.0918 69.4554 52.2584 69.7953C52.4251 70.1353 52.5072 70.5316 52.5047 70.9842C52.5022 71.435 52.4158 71.8284 52.2454 72.1646C52.0749 72.5008 51.8367 72.7618 51.5308 72.9476C51.2248 73.1334 50.8673 73.2252 50.4582 73.2229ZM50.465 72.5099C50.7302 72.5114 50.9502 72.4425 51.1253 72.3033C51.3003 72.1641 51.4301 71.9783 51.5147 71.7458C51.6012 71.5133 51.6452 71.2569 51.6468 70.9766C51.6483 70.6982 51.6071 70.4423 51.5232 70.2089C51.4412 69.9736 51.3134 69.7844 51.14 69.6414C50.9665 69.4984 50.7472 69.4262 50.4821 69.4247C50.215 69.4232 49.993 69.493 49.8161 69.6341C49.6411 69.7752 49.5103 69.9629 49.4238 70.1973C49.3392 70.4298 49.2961 70.6852 49.2946 70.9636C49.293 71.2439 49.3333 71.5008 49.4153 71.7342C49.4992 71.9676 49.6279 72.1549 49.8014 72.296C49.9768 72.4371 50.198 72.5084 50.465 72.5099ZM55.0739 73.2456C54.7217 73.2437 54.4078 73.152 54.1323 72.9705C53.8587 72.7872 53.6442 72.5275 53.4888 72.1914C53.3354 71.8534 53.26 71.4486 53.2626 70.977C53.2652 70.5055 53.346 70.1025 53.5051 69.7681C53.666 69.4338 53.8852 69.1784 54.1627 69.0019C54.4402 68.8254 54.7542 68.7381 55.1045 68.74C55.3754 68.7415 55.5929 68.7882 55.7572 68.88C55.9233 68.9699 56.0516 69.0748 56.1418 69.1946C56.2339 69.3145 56.3053 69.42 56.356 69.5112L56.4071 69.5115L56.419 67.3496L57.2685 67.3542L57.2363 73.1723L56.4068 73.1678L56.4105 72.4888L56.3395 72.4884C56.2879 72.5809 56.2134 72.6866 56.1162 72.8054C56.0208 72.9241 55.8895 73.0276 55.7224 73.1157C55.5552 73.2038 55.3391 73.2471 55.0739 73.2456ZM55.2654 72.5222C55.5098 72.5236 55.7165 72.4603 55.8858 72.3325C56.057 72.2027 56.1868 72.0226 56.2752 71.792C56.3655 71.5614 56.4115 71.2928 56.4132 70.9859C56.4148 70.6829 56.3727 70.4175 56.2869 70.1898C56.201 69.962 56.0741 69.7842 55.9063 69.6564C55.7384 69.5286 55.5305 69.464 55.2824 69.4626C55.0267 69.4612 54.8132 69.5263 54.6421 69.6579C54.4709 69.7896 54.3411 69.9697 54.2527 70.1984C54.1662 70.4271 54.1222 70.6854 54.1206 70.9733C54.119 71.2649 54.1611 71.5275 54.2469 71.7609C54.3327 71.9943 54.4605 72.1797 54.6302 72.317C54.8018 72.4524 55.0135 72.5208 55.2654 72.5222ZM63.8539 69.9106L63.0832 70.0427C63.0516 69.944 63.001 69.85 62.9314 69.7606C62.8637 69.6712 62.7713 69.5978 62.6542 69.5403C62.5371 69.4828 62.3905 69.4536 62.2143 69.4526C61.9738 69.4513 61.7728 69.5042 61.6112 69.6112C61.4496 69.7164 61.3684 69.8533 61.3674 70.0218C61.3666 70.1677 61.4199 70.2854 61.5274 70.375C61.6349 70.4646 61.8087 70.5385 62.0489 70.5966L62.7412 70.7596C63.1422 70.8546 63.4406 70.9992 63.6365 71.1935C63.8324 71.3878 63.9295 71.6392 63.9278 71.9479C63.9264 72.2093 63.8493 72.4418 63.6967 72.6455C63.546 72.8474 63.3358 73.0053 63.0662 73.1193C62.7986 73.2334 62.4886 73.2894 62.1363 73.2875C61.6477 73.2848 61.2496 73.1784 60.942 72.9684C60.6345 72.7565 60.4467 72.4571 60.3788 72.0704L61.2005 71.9499C61.2505 72.1642 61.3547 72.3267 61.5132 72.4374C61.6717 72.5463 61.8787 72.6014 62.1344 72.6028C62.4128 72.6044 62.6357 72.5478 62.803 72.4332C62.9703 72.3167 63.0544 72.1742 63.0553 72.0056C63.0561 71.8693 63.0056 71.7544 62.9038 71.661C62.804 71.5677 62.65 71.4967 62.4419 71.4483L61.7042 71.2822C61.2975 71.1872 60.9972 71.0378 60.8033 70.8341C60.6112 70.6304 60.516 70.3732 60.5178 70.0626C60.5192 69.805 60.5924 69.58 60.7374 69.3877C60.8824 69.1953 61.0821 69.0458 61.3365 68.9393C61.5909 68.8308 61.8819 68.7775 62.2095 68.7793C62.6811 68.7819 63.0518 68.8862 63.3215 69.0923C63.5912 69.2964 63.7686 69.5692 63.8539 69.9106ZM66.735 73.3129C66.305 73.3105 65.9353 73.2166 65.6257 73.0312C65.318 72.8439 65.0808 72.5822 64.9141 72.246C64.7493 71.908 64.6682 71.5126 64.6707 71.06C64.6732 70.613 64.7587 70.2196 64.9272 69.8796C65.0977 69.5396 65.334 69.2748 65.6362 69.0852C65.9402 68.8956 66.2949 68.8019 66.7002 68.8041C66.9464 68.8055 67.1848 68.8475 67.4155 68.9302C67.6461 69.013 67.8527 69.1419 68.0355 69.3172C68.2182 69.4925 68.3619 69.7196 68.4664 69.9986C68.5709 70.2757 68.6221 70.6121 68.6199 71.008L68.6182 71.3091L65.1495 71.2899L65.1531 70.6536L67.7894 70.6681C67.7906 70.4447 67.7462 70.2465 67.6563 70.0736C67.5663 69.8989 67.4393 69.7609 67.2751 69.6596C67.1127 69.5583 66.9217 69.5071 66.702 69.5059C66.4634 69.5045 66.2547 69.5621 66.0761 69.6785C65.8993 69.7931 65.7621 69.9439 65.6645 70.1308C65.5687 70.3159 65.5203 70.5173 65.5191 70.7351L65.5163 71.2323C65.5147 71.5239 65.5645 71.7723 65.6656 71.9774C65.7687 72.1826 65.9127 72.3396 66.0977 72.4486C66.2827 72.5557 66.4993 72.6099 66.7474 72.6113C66.9083 72.6122 67.0553 72.5902 67.1881 72.5455C67.3209 72.4989 67.4359 72.4295 67.533 72.3372C67.6301 72.2449 67.7046 72.1308 67.7565 71.9947L68.5596 72.144C68.4939 72.3804 68.3773 72.5871 68.2096 72.7642C68.0439 72.9395 67.8357 73.0756 67.5852 73.1727C67.3365 73.2679 67.0531 73.3147 66.735 73.3129ZM71.3876 73.3386C70.9653 73.3363 70.6021 73.2386 70.2983 73.0457C69.9963 72.8508 69.7648 72.5834 69.6038 72.2435C69.4428 71.9036 69.3636 71.5149 69.366 71.0774C69.3684 70.6343 69.4539 70.2436 69.6225 69.9055C69.791 69.5655 70.0273 69.3008 70.3314 69.1111C70.6355 68.9215 70.993 68.8279 71.404 68.8301C71.7354 68.832 72.0305 68.8952 72.2893 69.0197C72.5481 69.1423 72.7565 69.3139 72.9143 69.5345C73.0741 69.7551 73.1683 70.0123 73.197 70.306L72.3703 70.3014C72.326 70.0966 72.2228 69.9199 72.0607 69.7713C71.9006 69.6227 71.6851 69.5476 71.4142 69.5461C71.1775 69.5448 70.9698 69.6062 70.7911 69.7302C70.6142 69.8523 70.476 70.0277 70.3762 70.2563C70.2765 70.483 70.2257 70.7517 70.224 71.0623C70.2223 71.3805 70.269 71.6553 70.3644 71.8869C70.4597 72.1185 70.595 72.2983 70.7705 72.4261C70.9478 72.554 71.1567 72.6186 71.3972 72.6199C71.5582 72.6208 71.7042 72.5923 71.8352 72.5343C71.9681 72.4744 72.0794 72.3888 72.169 72.2776C72.2606 72.1664 72.3248 72.0322 72.3616 71.8752L73.1883 71.8798C73.1564 72.1618 73.0632 72.4132 72.9086 72.634C72.7539 72.8547 72.5475 73.0278 72.2892 73.1533C72.0328 73.2788 71.7323 73.3405 71.3876 73.3386ZM76.8632 71.4711L76.8773 68.9172L77.7296 68.9219L77.7055 73.2855L76.8702 73.2809L76.8744 72.5252L76.829 72.525C76.7273 72.7573 76.5652 72.9506 76.3428 73.1047C76.1223 73.2569 75.8482 73.332 75.5205 73.3302C75.2402 73.3287 74.9925 73.2658 74.7772 73.1415C74.5639 73.0153 74.3964 72.8297 74.2746 72.5847C74.1548 72.3397 74.0958 72.0373 74.0978 71.6775L74.1132 68.9019L74.9626 68.9066L74.9478 71.5799C74.9462 71.8772 75.0272 72.1144 75.191 72.2915C75.3548 72.4685 75.5683 72.5578 75.8316 72.5592C75.9907 72.5601 76.1491 72.5212 76.3067 72.4425C76.4662 72.3639 76.5985 72.2443 76.7036 72.0839C76.8105 71.9235 76.8637 71.7193 76.8632 71.4711ZM78.8468 73.2918L78.8709 68.9282L79.6919 68.9328L79.6881 69.6259L79.7335 69.6262C79.8144 69.3918 79.9555 69.2079 80.157 69.0745C80.3604 68.9393 80.59 68.8724 80.8457 68.8738C80.8987 68.8741 80.9612 68.8763 81.0331 68.8805C81.107 68.8847 81.1647 68.8898 81.2063 68.8957L81.2018 69.7082C81.1678 69.6985 81.1073 69.6878 81.0202 69.6759C80.9332 69.6622 80.8461 69.6551 80.759 69.6546C80.5582 69.6535 80.379 69.6951 80.2213 69.7795C80.0656 69.8619 79.9418 69.9777 79.8501 70.1268C79.7584 70.2741 79.712 70.4424 79.7109 70.6318L79.6962 73.2965L78.8468 73.2918ZM81.917 73.3088L81.9412 68.9452L82.7906 68.9499L82.7665 73.3135L81.917 73.3088ZM82.3739 68.2743C82.2261 68.2735 82.0995 68.2235 81.994 68.1245C81.8904 68.0235 81.839 67.9039 81.8397 67.7656C81.8405 67.6255 81.8932 67.5065 81.9979 67.4086C82.1046 67.3088 82.2317 67.2593 82.3795 67.2601C82.5272 67.2609 82.6529 67.3118 82.7565 67.4128C82.862 67.5118 82.9143 67.6314 82.9136 67.7716C82.9128 67.9098 82.8591 68.0289 82.7525 68.1287C82.6478 68.2266 82.5216 68.2751 82.3739 68.2743ZM85.9702 68.9675L85.9664 69.6493L83.583 69.6361L83.5867 68.9543L85.9702 68.9675ZM84.2317 67.9124L85.0811 67.9171L85.0583 72.0449C85.0574 72.2096 85.0813 72.3338 85.1301 72.4174C85.1789 72.4991 85.242 72.5554 85.3195 72.5861C85.3989 72.6149 85.485 72.6296 85.5778 72.6301C85.646 72.6305 85.7057 72.6261 85.7569 72.6169C85.808 72.6077 85.8479 72.6004 85.8763 72.5949L86.0258 73.2974C85.9765 73.3161 85.9063 73.3346 85.8153 73.353C85.7243 73.3734 85.6106 73.3841 85.4742 73.3853C85.2507 73.3878 85.0426 73.3469 84.8499 73.2625C84.6571 73.1781 84.5016 73.0484 84.3833 72.8735C84.2649 72.6986 84.2065 72.4796 84.2079 72.2163L84.2317 67.9124ZM87.4136 74.9755C87.2867 74.9748 87.1712 74.9638 87.0672 74.9424C86.9631 74.9229 86.8856 74.9016 86.8346 74.8786L87.043 74.1837C87.198 74.2262 87.3362 74.245 87.4574 74.24C87.5787 74.235 87.6859 74.1901 87.7792 74.1054C87.8744 74.0207 87.9585 73.8819 88.0315 73.6892L88.1382 73.4L86.5661 68.9708L87.4752 68.9758L88.5615 72.3682L88.607 72.3685L89.7308 68.9883L90.6427 68.9933L88.8171 73.9293C88.7325 74.1561 88.6254 74.3478 88.4958 74.5042C88.3661 74.6626 88.212 74.7811 88.0336 74.8597C87.8551 74.9382 87.6484 74.9768 87.4136 74.9755Z" fill="white"/>
</g>
<defs>
<filter id="filter0_d_99_2" x="28.8" y="28.2531" width="58.6809" height="18.6926" filterUnits="userSpaceOnUse" color-interpolation-filters="sRGB">
<feFlood flood-opacity="0" result="BackgroundImageFix"/>
<feColorMatrix in="SourceAlpha" type="matrix" values="0 0 0 0 0 0 0 0 0 0 0 0 0 0 0 0 0 0 127 0" result="hardAlpha"/>
<feOffset dy="2"/>
<feGaussianBlur stdDeviation="0.1"/>
<feComposite in2="hardAlpha" operator="out"/>
<feColorMatrix type="matrix" values="0 0 0 0 0 0 0 0 0 0 0 0 0 0 0 0 0 0 0.18 0"/>
<feBlend mode="normal" in2="BackgroundImageFix" result="effect1_dropShadow_99_2"/>
<feBlend mode="normal" in="SourceGraphic" in2="effect1_dropShadow_99_2" result="shape"/>
</filter>
<filter id="filter1_d_99_2" x="68.6573" y="34.1809" width="29.951" height="8.91573" filterUnits="userSpaceOnUse" color-interpolation-filters="sRGB">
<feFlood flood-opacity="0" result="BackgroundImageFix"/>
<feColorMatrix in="SourceAlpha" type="matrix" values="0 0 0 0 0 0 0 0 0 0 0 0 0 0 0 0 0 0 127 0" result="hardAlpha"/>
<feOffset dy="2"/>
<feGaussianBlur stdDeviation="0.1"/>
<feComposite in2="hardAlpha" operator="out"/>
<feColorMatrix type="matrix" values="0 0 0 0 0 0 0 0 0 0 0 0 0 0 0 0 0 0 0.18 0"/>
<feBlend mode="normal" in2="BackgroundImageFix" result="effect1_dropShadow_99_2"/>
<feBlend mode="normal" in="SourceGraphic" in2="effect1_dropShadow_99_2" result="shape"/>
</filter>
<filter id="filter2_d_99_2" x="36.1707" y="3.49136" width="45.0436" height="38.136" filterUnits="userSpaceOnUse" color-interpolation-filters="sRGB">
<feFlood flood-opacity="0" result="BackgroundImageFix"/>
<feColorMatrix in="SourceAlpha" type="matrix" values="0 0 0 0 0 0 0 0 0 0 0 0 0 0 0 0 0 0 127 0" result="hardAlpha"/>
<feOffset dy="2"/>
<feGaussianBlur stdDeviation="0.1"/>
<feComposite in2="hardAlpha" operator="out"/>
<feColorMatrix type="matrix" values="0 0 0 0 0 0 0 0 0 0 0 0 0 0 0 0 0 0 0.18 0"/>
<feBlend mode="normal" in2="BackgroundImageFix" result="effect1_dropShadow_99_2"/>
<feBlend mode="normal" in="SourceGraphic" in2="effect1_dropShadow_99_2" result="shape"/>
</filter>
<filter id="filter3_d_99_2" x="19.8001" y="1" width="38.8101" height="40.5922" filterUnits="userSpaceOnUse" color-interpolation-filters="sRGB">
<feFlood flood-opacity="0" result="BackgroundImageFix"/>
<feColorMatrix in="SourceAlpha" type="matrix" values="0 0 0 0 0 0 0 0 0 0 0 0 0 0 0 0 0 0 127 0" result="hardAlpha"/>
<feOffset dy="2"/>
<feGaussianBlur stdDeviation="0.1"/>
<feComposite in2="hardAlpha" operator="out"/>
<feColorMatrix type="matrix" values="0 0 0 0 0 0 0 0 0 0 0 0 0 0 0 0 0 0 0.18 0"/>
<feBlend mode="normal" in2="BackgroundImageFix" result="effect1_dropShadow_99_2"/>
<feBlend mode="normal" in="SourceGraphic" in2="effect1_dropShadow_99_2" result="shape"/>
</filter>
<filter id="filter4_d_99_2" x="8.6504" y="51.8612" width="100.392" height="12.9341" filterUnits="userSpaceOnUse" color-interpolation-filters="sRGB">
<feFlood flood-opacity="0" result="BackgroundImageFix"/>
<feColorMatrix in="SourceAlpha" type="matrix" values="0 0 0 0 0 0 0 0 0 0 0 0 0 0 0 0 0 0 127 0" result="hardAlpha"/>
<feOffset dy="2"/>
<feGaussianBlur stdDeviation="0.1"/>
<feComposite in2="hardAlpha" operator="out"/>
<feColorMatrix type="matrix" values="0 0 0 0 0 0 0 0 0 0 0 0 0 0 0 0 0 0 0.18 0"/>
<feBlend mode="normal" in2="BackgroundImageFix" result="effect1_dropShadow_99_2"/>
<feBlend mode="normal" in="SourceGraphic" in2="effect1_dropShadow_99_2" result="shape"/>
</filter>
<filter id="filter5_d_99_2" x="26.5036" y="66.9128" width="64.3487" height="10.2804" filterUnits="userSpaceOnUse" color-interpolation-filters="sRGB">
<feFlood flood-opacity="0" result="BackgroundImageFix"/>
<feColorMatrix in="SourceAlpha" type="matrix" values="0 0 0 0 0 0 0 0 0 0 0 0 0 0 0 0 0 0 127 0" result="hardAlpha"/>
<feOffset dy="2"/>
<feGaussianBlur stdDeviation="0.1"/>
<feComposite in2="hardAlpha" operator="out"/>
<feColorMatrix type="matrix" values="0 0 0 0 0 0 0 0 0 0 0 0 0 0 0 0 0 0 0.18 0"/>
<feBlend mode="normal" in2="BackgroundImageFix" result="effect1_dropShadow_99_2"/>
<feBlend mode="normal" in="SourceGraphic" in2="effect1_dropShadow_99_2" result="shape"/>
</filter>
</defs>
</svg>
