<svg width="22" height="19" viewBox="0 0 22 19" fill="none" xmlns="http://www.w3.org/2000/svg">
<rect width="22" height="19" fill="black"/>
<path d="M7.67756 15V14.2727H8.12855V14.3672H7.78729V14.5888H8.09624V14.6829H7.78729V15H7.67756ZM8.44469 15.011C8.39355 15.011 8.34893 14.9993 8.31081 14.9759C8.2727 14.9524 8.2431 14.9196 8.22203 14.8775C8.20096 14.8353 8.19043 14.7861 8.19043 14.7298C8.19043 14.6732 8.20096 14.6237 8.22203 14.5813C8.2431 14.5389 8.2727 14.506 8.31081 14.4826C8.34893 14.4592 8.39355 14.4474 8.44469 14.4474C8.49583 14.4474 8.54045 14.4592 8.57857 14.4826C8.61668 14.506 8.64628 14.5389 8.66735 14.5813C8.68842 14.6237 8.69895 14.6732 8.69895 14.7298C8.69895 14.7861 8.68842 14.8353 8.66735 14.8775C8.64628 14.9196 8.61668 14.9524 8.57857 14.9759C8.54045 14.9993 8.49583 15.011 8.44469 15.011ZM8.44505 14.9219C8.47819 14.9219 8.50565 14.9131 8.52743 14.8956C8.54921 14.8781 8.56531 14.8548 8.57573 14.8256C8.58638 14.7965 8.59171 14.7644 8.59171 14.7294C8.59171 14.6946 8.58638 14.6626 8.57573 14.6335C8.56531 14.6042 8.54921 14.5806 8.52743 14.5629C8.50565 14.5451 8.47819 14.5362 8.44505 14.5362C8.41167 14.5362 8.38397 14.5451 8.36195 14.5629C8.34017 14.5806 8.32395 14.6042 8.3133 14.6335C8.30288 14.6626 8.29767 14.6946 8.29767 14.7294C8.29767 14.7644 8.30288 14.7965 8.3133 14.8256C8.32395 14.8548 8.34017 14.8781 8.36195 14.8956C8.38397 14.9131 8.41167 14.9219 8.44505 14.9219ZM8.81747 15V14.4545H8.9201V14.5412H8.92578C8.93572 14.5118 8.95324 14.4888 8.97834 14.4719C9.00367 14.4549 9.03232 14.4464 9.06428 14.4464C9.0709 14.4464 9.07872 14.4466 9.08771 14.4471C9.09695 14.4476 9.10417 14.4482 9.10938 14.4489V14.5504C9.10511 14.5492 9.09754 14.5479 9.08665 14.5465C9.07576 14.5449 9.06487 14.544 9.05398 14.544C9.02888 14.544 9.00651 14.5494 8.98686 14.56C8.96745 14.5704 8.95206 14.585 8.9407 14.6037C8.92933 14.6222 8.92365 14.6432 8.92365 14.6669V15H8.81747ZM9.47443 15V14.2727H9.92543V14.3672H9.58416V14.5888H9.89311V14.6829H9.58416V15H9.47443ZM10.2416 15.011C10.1904 15.011 10.1458 14.9993 10.1077 14.9759C10.0696 14.9524 10.04 14.9196 10.0189 14.8775C9.99784 14.8353 9.9873 14.7861 9.9873 14.7298C9.9873 14.6732 9.99784 14.6237 10.0189 14.5813C10.04 14.5389 10.0696 14.506 10.1077 14.4826C10.1458 14.4592 10.1904 14.4474 10.2416 14.4474C10.2927 14.4474 10.3373 14.4592 10.3754 14.4826C10.4136 14.506 10.4432 14.5389 10.4642 14.5813C10.4853 14.6237 10.4958 14.6732 10.4958 14.7298C10.4958 14.7861 10.4853 14.8353 10.4642 14.8775C10.4432 14.9196 10.4136 14.9524 10.3754 14.9759C10.3373 14.9993 10.2927 15.011 10.2416 15.011ZM10.2419 14.9219C10.2751 14.9219 10.3025 14.9131 10.3243 14.8956C10.3461 14.8781 10.3622 14.8548 10.3726 14.8256C10.3833 14.7965 10.3886 14.7644 10.3886 14.7294C10.3886 14.6946 10.3833 14.6626 10.3726 14.6335C10.3622 14.6042 10.3461 14.5806 10.3243 14.5629C10.3025 14.5451 10.2751 14.5362 10.2419 14.5362C10.2085 14.5362 10.1808 14.5451 10.1588 14.5629C10.137 14.5806 10.1208 14.6042 10.1102 14.6335C10.0998 14.6626 10.0945 14.6946 10.0945 14.7294C10.0945 14.7644 10.0998 14.7965 10.1102 14.8256C10.1208 14.8548 10.137 14.8781 10.1588 14.8956C10.1808 14.9131 10.2085 14.9219 10.2419 14.9219ZM10.8441 15.011C10.793 15.011 10.7483 14.9993 10.7102 14.9759C10.6721 14.9524 10.6425 14.9196 10.6214 14.8775C10.6004 14.8353 10.5898 14.7861 10.5898 14.7298C10.5898 14.6732 10.6004 14.6237 10.6214 14.5813C10.6425 14.5389 10.6721 14.506 10.7102 14.4826C10.7483 14.4592 10.793 14.4474 10.8441 14.4474C10.8952 14.4474 10.9399 14.4592 10.978 14.4826C11.0161 14.506 11.0457 14.5389 11.0668 14.5813C11.0878 14.6237 11.0984 14.6732 11.0984 14.7298C11.0984 14.7861 11.0878 14.8353 11.0668 14.8775C11.0457 14.9196 11.0161 14.9524 10.978 14.9759C10.9399 14.9993 10.8952 15.011 10.8441 15.011ZM10.8445 14.9219C10.8776 14.9219 10.9051 14.9131 10.9268 14.8956C10.9486 14.8781 10.9647 14.8548 10.9751 14.8256C10.9858 14.7965 10.9911 14.7644 10.9911 14.7294C10.9911 14.6946 10.9858 14.6626 10.9751 14.6335C10.9647 14.6042 10.9486 14.5806 10.9268 14.5629C10.9051 14.5451 10.8776 14.5362 10.8445 14.5362C10.8111 14.5362 10.7834 14.5451 10.7614 14.5629C10.7396 14.5806 10.7234 14.6042 10.7127 14.6335C10.7023 14.6626 10.6971 14.6946 10.6971 14.7294C10.6971 14.7644 10.7023 14.7965 10.7127 14.8256C10.7234 14.8548 10.7396 14.8781 10.7614 14.8956C10.7834 14.9131 10.8111 14.9219 10.8445 14.9219ZM11.4211 15.0107C11.377 15.0107 11.3377 14.9994 11.3032 14.9769C11.2689 14.9542 11.2419 14.9219 11.2222 14.88C11.2028 14.8378 11.1931 14.7873 11.1931 14.7283C11.1931 14.6694 11.2029 14.619 11.2226 14.5771C11.2425 14.5352 11.2697 14.5031 11.3042 14.4808C11.3388 14.4586 11.378 14.4474 11.4218 14.4474C11.4556 14.4474 11.4829 14.4531 11.5035 14.4645C11.5243 14.4756 11.5404 14.4886 11.5518 14.5036C11.5634 14.5185 11.5724 14.5316 11.5787 14.543H11.5851V14.2727H11.6913V15H11.5876V14.9151H11.5787C11.5724 14.9267 11.5631 14.94 11.551 14.9549C11.5392 14.9698 11.5229 14.9828 11.502 14.994C11.4812 15.0051 11.4542 15.0107 11.4211 15.0107ZM11.4445 14.9201C11.4751 14.9201 11.5009 14.9121 11.5219 14.896C11.5432 14.8796 11.5593 14.857 11.5702 14.8281C11.5814 14.7992 11.5869 14.7656 11.5869 14.7273C11.5869 14.6894 11.5815 14.6562 11.5706 14.6278C11.5597 14.5994 11.5437 14.5773 11.5226 14.5614C11.5016 14.5456 11.4755 14.5376 11.4445 14.5376C11.4126 14.5376 11.3859 14.5459 11.3646 14.5625C11.3433 14.5791 11.3272 14.6017 11.3163 14.6303C11.3057 14.659 11.3003 14.6913 11.3003 14.7273C11.3003 14.7637 11.3058 14.7965 11.3167 14.8256C11.3276 14.8548 11.3437 14.8778 11.365 14.8949C11.3865 14.9117 11.413 14.9201 11.4445 14.9201ZM12.5127 14.4638C12.5089 14.4302 12.4933 14.4041 12.4658 14.3857C12.4384 14.367 12.4038 14.3576 12.3621 14.3576C12.3323 14.3576 12.3065 14.3623 12.2847 14.3718C12.2629 14.381 12.246 14.3938 12.2339 14.4102C12.2221 14.4263 12.2162 14.4446 12.2162 14.4652C12.2162 14.4825 12.2202 14.4974 12.2282 14.5099C12.2365 14.5225 12.2473 14.533 12.2606 14.5415C12.2741 14.5498 12.2885 14.5568 12.3039 14.5625C12.3193 14.5679 12.3341 14.5724 12.3483 14.576L12.4193 14.5945C12.4425 14.6001 12.4663 14.6078 12.4907 14.6175C12.5151 14.6272 12.5377 14.64 12.5585 14.6559C12.5793 14.6718 12.5961 14.6914 12.6089 14.7148C12.622 14.7383 12.6285 14.7663 12.6285 14.799C12.6285 14.8402 12.6178 14.8768 12.5965 14.9087C12.5754 14.9407 12.5448 14.9659 12.5045 14.9844C12.4645 15.0028 12.4161 15.0121 12.3593 15.0121C12.3048 15.0121 12.2577 15.0034 12.218 14.9862C12.1782 14.9689 12.147 14.9444 12.1246 14.9126C12.1021 14.8807 12.0896 14.8428 12.0873 14.799H12.1974C12.1995 14.8253 12.208 14.8472 12.2229 14.8647C12.2381 14.882 12.2574 14.8949 12.2808 14.9034C12.3045 14.9117 12.3304 14.9158 12.3586 14.9158C12.3896 14.9158 12.4172 14.911 12.4413 14.9013C12.4657 14.8913 12.4849 14.8776 12.4988 14.8601C12.5128 14.8423 12.5198 14.8216 12.5198 14.7979C12.5198 14.7764 12.5136 14.7588 12.5013 14.745C12.4893 14.7313 12.4728 14.7199 12.452 14.7109C12.4314 14.7019 12.4081 14.694 12.382 14.6871L12.2961 14.6637C12.2378 14.6478 12.1917 14.6245 12.1576 14.5938C12.1237 14.563 12.1068 14.5223 12.1068 14.4716C12.1068 14.4297 12.1182 14.3931 12.1409 14.3619C12.1636 14.3306 12.1944 14.3063 12.2332 14.2891C12.272 14.2715 12.3158 14.2628 12.3646 14.2628C12.4139 14.2628 12.4573 14.2714 12.4949 14.2887C12.5328 14.306 12.5626 14.3298 12.5844 14.3601C12.6062 14.3902 12.6176 14.4247 12.6185 14.4638H12.5127ZM12.9862 15.011C12.9324 15.011 12.8861 14.9995 12.8473 14.9766C12.8087 14.9534 12.7789 14.9208 12.7578 14.8789C12.737 14.8368 12.7266 14.7874 12.7266 14.7308C12.7266 14.675 12.737 14.6257 12.7578 14.5831C12.7789 14.5405 12.8082 14.5072 12.8459 14.4833C12.8838 14.4594 12.928 14.4474 12.9787 14.4474C13.0095 14.4474 13.0393 14.4525 13.0682 14.4627C13.0971 14.4729 13.123 14.4889 13.146 14.5107C13.1689 14.5324 13.187 14.5607 13.2003 14.5955C13.2135 14.6301 13.2202 14.6721 13.2202 14.7216V14.7592H12.7866V14.6797H13.1161C13.1161 14.6518 13.1104 14.627 13.0991 14.6055C13.0877 14.5837 13.0717 14.5665 13.0511 14.554C13.0308 14.5414 13.0069 14.5352 12.9794 14.5352C12.9496 14.5352 12.9235 14.5425 12.9013 14.5572C12.8793 14.5716 12.8622 14.5906 12.8501 14.614C12.8383 14.6372 12.8324 14.6624 12.8324 14.6896V14.7518C12.8324 14.7882 12.8388 14.8192 12.8516 14.8448C12.8646 14.8704 12.8827 14.8899 12.9059 14.9034C12.9291 14.9167 12.9562 14.9233 12.9872 14.9233C13.0073 14.9233 13.0257 14.9205 13.0423 14.9148C13.0588 14.9089 13.0732 14.9001 13.0852 14.8885C13.0973 14.8769 13.1065 14.8626 13.1129 14.8455L13.2134 14.8636C13.2054 14.8932 13.1909 14.9192 13.1701 14.9414C13.1495 14.9634 13.1236 14.9806 13.0923 14.9929C13.0613 15.005 13.0259 15.011 12.9862 15.011ZM13.5677 15.011C13.5149 15.011 13.4695 14.9991 13.4314 14.9751C13.3935 14.951 13.3644 14.9177 13.344 14.8754C13.3237 14.833 13.3135 14.7844 13.3135 14.7298C13.3135 14.6744 13.3239 14.6255 13.3447 14.5831C13.3656 14.5405 13.3949 14.5072 13.4328 14.4833C13.4707 14.4594 13.5153 14.4474 13.5667 14.4474C13.6081 14.4474 13.645 14.4551 13.6775 14.4705C13.7099 14.4857 13.7361 14.507 13.7559 14.5344C13.7761 14.5619 13.788 14.594 13.7918 14.6307H13.6885C13.6828 14.6051 13.6698 14.5831 13.6494 14.5646C13.6293 14.5462 13.6023 14.5369 13.5684 14.5369C13.5389 14.5369 13.5129 14.5447 13.4907 14.5604C13.4687 14.5758 13.4515 14.5978 13.4392 14.6264C13.4269 14.6548 13.4207 14.6884 13.4207 14.7273C13.4207 14.767 13.4268 14.8014 13.4388 14.8303C13.4509 14.8591 13.468 14.8815 13.49 14.8974C13.5122 14.9132 13.5384 14.9212 13.5684 14.9212C13.5886 14.9212 13.6068 14.9175 13.6231 14.9102C13.6397 14.9026 13.6536 14.8918 13.6647 14.8778C13.676 14.8639 13.684 14.8471 13.6885 14.8274H13.7918C13.788 14.8627 13.7765 14.8942 13.7574 14.9219C13.7382 14.9496 13.7125 14.9714 13.6803 14.9872C13.6483 15.0031 13.6108 15.011 13.5677 15.011ZM14.2509 14.7738V14.4545H14.3574V15H14.253V14.9055H14.2473C14.2348 14.9347 14.2147 14.9589 14.187 14.9783C14.1595 14.9975 14.1253 15.0071 14.0843 15.0071C14.0493 15.0071 14.0183 14.9994 13.9913 14.984C13.9645 14.9684 13.9435 14.9453 13.9281 14.9148C13.9129 14.8842 13.9054 14.8465 13.9054 14.8015V14.4545H14.0115V14.7887C14.0115 14.8259 14.0218 14.8555 14.0424 14.8775C14.063 14.8995 14.0898 14.9105 14.1227 14.9105C14.1426 14.9105 14.1623 14.9055 14.182 14.8956C14.2019 14.8857 14.2183 14.8706 14.2314 14.8505C14.2446 14.8304 14.2511 14.8048 14.2509 14.7738ZM14.5001 15V14.4545H14.6027V14.5412H14.6084C14.6183 14.5118 14.6359 14.4888 14.661 14.4719C14.6863 14.4549 14.7149 14.4464 14.7469 14.4464C14.7535 14.4464 14.7613 14.4466 14.7703 14.4471C14.7796 14.4476 14.7868 14.4482 14.792 14.4489V14.5504C14.7877 14.5492 14.7802 14.5479 14.7693 14.5465C14.7584 14.5449 14.7475 14.544 14.7366 14.544C14.7115 14.544 14.6891 14.5494 14.6695 14.56C14.6501 14.5704 14.6347 14.585 14.6233 14.6037C14.6119 14.6222 14.6063 14.6432 14.6063 14.6669V15H14.5001ZM14.8839 15V14.4545H14.9901V15H14.8839ZM14.9375 14.3704C14.919 14.3704 14.9032 14.3642 14.8899 14.3519C14.8769 14.3394 14.8704 14.3245 14.8704 14.3072C14.8704 14.2897 14.8769 14.2747 14.8899 14.2624C14.9032 14.2499 14.919 14.2436 14.9375 14.2436C14.956 14.2436 14.9717 14.2499 14.9847 14.2624C14.998 14.2747 15.0046 14.2897 15.0046 14.3072C15.0046 14.3245 14.998 14.3394 14.9847 14.3519C14.9717 14.3642 14.956 14.3704 14.9375 14.3704ZM15.3875 14.4545V14.5398H15.0896V14.4545H15.3875ZM15.1695 14.3239H15.2757V14.8398C15.2757 14.8604 15.2787 14.8759 15.2849 14.8864C15.291 14.8965 15.299 14.9035 15.3087 14.9073C15.3186 14.9109 15.3294 14.9126 15.341 14.9126C15.3495 14.9126 15.357 14.9121 15.3634 14.9109C15.3698 14.9097 15.3747 14.9087 15.3783 14.908L15.3975 14.9957C15.3913 14.9981 15.3825 15.0005 15.3712 15.0028C15.3598 15.0054 15.3456 15.0069 15.3286 15.0071C15.3006 15.0076 15.2746 15.0026 15.2504 14.9922C15.2263 14.9818 15.2068 14.9657 15.1919 14.9439C15.1769 14.9221 15.1695 14.8948 15.1695 14.8619V14.3239ZM15.5721 15.2045C15.5562 15.2045 15.5418 15.2032 15.5288 15.2006C15.5157 15.1983 15.506 15.1957 15.4996 15.1928L15.5252 15.1058C15.5446 15.111 15.5619 15.1133 15.5771 15.1126C15.5922 15.1119 15.6056 15.1062 15.6172 15.0955C15.629 15.0849 15.6394 15.0675 15.6484 15.0433L15.6616 15.0071L15.462 14.4545H15.5756L15.7138 14.8778H15.7195L15.8576 14.4545H15.9716L15.7468 15.0728C15.7364 15.1012 15.7231 15.1252 15.707 15.1449C15.6909 15.1648 15.6718 15.1797 15.6495 15.1896C15.6272 15.1996 15.6014 15.2045 15.5721 15.2045Z" fill="white"/>
<path d="M10.3579 10.0163C9.37841 10.2102 8.01468 10.0942 8.01468 10.0942C8.01468 10.0942 9.20133 9.81095 9.91865 9.46371C10.228 9.31399 10.4355 9.22223 10.7586 9.04339C11.3658 8.7073 11.8584 8.25424 12.2632 8.05293C12.668 7.85162 13.1071 7.70539 13.8304 7.93383C14.1203 8.02539 14.5421 8.25466 14.5421 8.25466L14.3383 8.25326C13.7272 8.24906 12.9881 8.49236 12.5025 8.76722C11.5835 9.28747 11.4239 9.80523 10.3579 10.0163Z" fill="white" stroke="#252525" stroke-width="0.03"/>
<path d="M13.7329 9.23089C13.327 9.26854 12.4127 9.58899 12.5145 9.4979C12.6163 9.4068 13.4298 8.95344 14.0392 8.77403C14.2273 8.71865 14.3985 8.69289 14.5467 8.68573C14.6949 8.67856 15.0027 8.68008 15.2563 8.7824C15.5393 8.89657 15.7245 9.19698 15.7425 9.32328C15.7606 9.44957 15.7603 9.52021 15.7603 9.52021C15.7603 9.52021 15.5582 9.33523 15.1529 9.24065C14.7476 9.14607 14.1388 9.19324 13.7329 9.23089Z" fill="white" stroke="#252525" stroke-width="0.03"/>
<path d="M8.84021 9.38352L11.8163 4.34886L13.8402 7.4169L12.6179 7.4085L11.808 6.24447L10.0649 8.86536L8.84021 9.38352Z" fill="white" stroke="#252525" stroke-width="0.03"/>
<path d="M10.6925 5.07818L11.3083 4.02924L7.03009 4L7.00668 9.3709L8.12716 9.37856L8.13772 6.95639L9.69453 6.95627L10.2545 5.9031L8.14231 5.90327L8.14598 5.06078L10.6925 5.07818Z" fill="white" stroke="#252525" stroke-width="0.03"/>
<path d="M4.77681 13V11.5455H5.73988V11.799H5.08434V12.1456H5.67596V12.3991H5.08434V13H4.77681ZM6.0158 13H5.68626L6.18839 11.5455H6.58469L7.08612 13H6.75657L6.39222 11.8778H6.38086L6.0158 13ZM5.99521 12.4283H6.77362V12.6683H5.99521V12.4283ZM7.56871 11.5455V13H7.26119V11.5455H7.56871ZM8.33736 13H7.82173V11.5455H8.34162C8.48793 11.5455 8.61387 11.5746 8.71946 11.6328C8.82505 11.6906 8.90625 11.7737 8.96307 11.8821C9.02036 11.9905 9.04901 12.1203 9.04901 12.2713C9.04901 12.4228 9.02036 12.553 8.96307 12.6619C8.90625 12.7708 8.82457 12.8544 8.71804 12.9126C8.61198 12.9709 8.48509 13 8.33736 13ZM8.12926 12.7365H8.32457C8.41548 12.7365 8.49195 12.7204 8.55398 12.6882C8.61648 12.6555 8.66335 12.6051 8.6946 12.5369C8.72633 12.4683 8.74219 12.3797 8.74219 12.2713C8.74219 12.1638 8.72633 12.076 8.6946 12.0078C8.66335 11.9396 8.61671 11.8894 8.55469 11.8572C8.49266 11.825 8.41619 11.8089 8.32528 11.8089H8.12926V12.7365ZM9.99041 13H9.66087L10.163 11.5455H10.5593L11.0607 13H10.7312L10.3668 11.8778H10.3555L9.99041 13ZM9.96982 12.4283H10.7482V12.6683H9.96982V12.4283ZM11.2358 13V11.5455H11.5433V12.7464H12.1669V13H11.2358ZM14.0501 11.5455V13H13.7844L13.1516 12.0845H13.141V13H12.8335V11.5455H13.1033L13.7312 12.4602H13.744V11.5455H14.0501ZM14.5549 13H14.2253L14.7275 11.5455H15.1238L15.6252 13H15.2956L14.9313 11.8778H14.9199L14.5549 13ZM14.5343 12.4283H15.3127V12.6683H14.5343V12.4283ZM16.051 13H15.7214L16.2235 11.5455H16.6199L17.1213 13H16.7917L16.4274 11.8778H16.416L16.051 13ZM16.0304 12.4283H16.8088V12.6683H16.0304V12.4283ZM17.2963 11.5455H17.6756L18.0762 12.5227H18.0932L18.4938 11.5455H18.873V13H18.5748V12.0533H18.5627L18.1863 12.9929H17.9831L17.6067 12.0497H17.5946V13H17.2963V11.5455Z" fill="white"/>
</svg>
