<svg width="130" height="129" viewBox="0 0 130 129" fill="none" xmlns="http://www.w3.org/2000/svg">
<path d="M126.25 2.25C128.25 3.5 129.25 5.75 128.5 8L112.5 116C112.25 117.75 111.25 119.5 109.5 120.25C108.75 120.75 107.75 121.25 106.75 121.25C105.75 121.25 105 121 104.25 120.75L79.75 110.25L52 128.25C51 128.75 49.75 129 48.75 129C48 129 47 128.75 46 128.5C44 127.25 43 125.25 43 123V94.75L4.5 78.75C2.5 77.75 1 75.75 1 73.5C0.75 71.25 2 69 4 68L120 2C122 0.75 124.5 1 126.25 2.25ZM93.25 31L20.5 72.25L46.5 83.25L93.25 31ZM54.75 112L66.25 104.75L54.75 99.75V112ZM102 106.5L114 25.75L58 88L102 106.5Z" fill="white"/>
</svg>
